<svg height="147.97733" viewBox="0 0 321.25333 147.97733" width="321.25333" xmlns="http://www.w3.org/2000/svg" xmlns:xlink="http://www.w3.org/1999/xlink"><clipPath id="a"><path d="m0 110.983h240.94v-110.983h-240.94z"/></clipPath><g transform="matrix(1.3333333 0 0 -1.3333333 0 147.97733)"><path d="m17.212 82.439h3.982v-21.173h-3.982z" fill="#1d1d1b"/><path d="m0 0-9.529 14.116h-.059v-14.116h-3.983v21.173h3.835l9.53-14.115h.059v14.115h3.983v-21.173z" fill="#1d1d1b" transform="translate(38.8921 61.2658)"/><g clip-path="url(#a)"><g fill="#1d1d1b"><path d="m0 0c-3.452 0-5.311 1.471-7.081 3.5l2.656 2.646c.884-1.146 2.035-2.322 4.425-2.322 1.475 0 2.802.882 2.802 2.646 0 3.97-8.85 3.088-8.85 9.998 0 3.706 2.773 5.882 6.048 5.882 2.655 0 4.425-.883 5.9-2.647l-2.212-2.646c-.738 1.176-2.213 1.764-3.688 1.764-1.328 0-2.212-.765-2.212-2.353 0-3.969 8.998-2.647 8.998-9.998 0-3.823-2.656-6.47-6.786-6.47" transform="translate(52.6025 60.6774)"/><path d="m0 0c-4.72 0-8.409 2.647-8.409 8.234v13.528h3.983v-13.528c0-2.941 1.918-4.557 4.426-4.557s4.425 1.616 4.425 4.557v13.528h3.983v-13.528c0-5.587-3.687-8.234-8.408-8.234" transform="translate(70.5923 60.6774)"/><path d="m0 0h-1.918v-5.881h1.918c1.77 0 3.245.882 3.245 2.941s-1.475 2.94-3.245 2.94m3.835-17.938-5.458 8.822h-.295v-8.822h-3.983v21.173h6.491c3.599 0 6.786-2.352 6.786-6.175 0-3.177-2.361-5.293-4.72-5.882l6.195-9.116z" transform="translate(88.8755 79.2038)"/><path d="m0 0v-17.351h-3.982v17.351h-4.573l.442 3.823h12.243l.443-3.823z" transform="translate(106.4243 78.6164)"/><path d="m0 0h-11.211v21.173h10.916l.59-3.822h-7.523v-4.705h6.638v-3.824h-6.638v-4.999h7.818z" transform="translate(124.5625 61.2658)"/><path d="m0 0c-6.638 0-10.916 4.706-10.916 11.175 0 6.47 4.573 11.175 10.916 11.175 2.772 0 5.428-1.177 7.14-2.97l-2.124-3.176c-1.328 1.499-3.039 2.322-5.016 2.322-4.307 0-6.933-3.234-6.933-7.351s2.773-7.351 6.933-7.351c2.184 0 3.688.734 5.016 2.322l2.389-2.911c-1.593-2.117-4.485-3.235-7.405-3.235" transform="translate(138.4229 60.6774)"/><path d="m0 0v8.969h-8.704v-8.969h-3.983v21.173h3.983v-8.381h8.704v8.381h3.983v-21.173z" transform="translate(161.751 61.2658)"/><path d="m0 0c-5.842 0-10.621 4.823-10.621 11.176 0 6.351 4.779 11.175 10.621 11.175 4.779 0 7.464-1.854 9.027-4.03l-2.654-2.646c-1.328 1.852-3.187 2.851-6.373 2.851-3.983 0-6.638-3.38-6.638-7.35 0-3.971 2.655-7.352 6.638-7.352 2.183 0 4.396.647 5.9 2.322v3.265h-3.835l.59 3.382h7.228v-7.705c-2.183-2.911-4.572-5.088-9.883-5.088" transform="translate(26.0625 25.4035)"/><path d="m0 0h-.059l-2.359-8.234h4.778zm4.839-16.468-1.416 4.705h-6.904l-1.416-4.705h-4.278l7.081 21.173h4.13l7.081-21.173z" transform="translate(46.4414 42.4602)"/><path d="m0 0v-17.351h-3.982v17.351h-4.574l.443 3.822h12.243l.443-3.822z" transform="translate(62.9248 43.343)"/><path d="m0 0h-11.211v21.173h10.916l.59-3.822h-7.523v-4.705h6.639v-3.824h-6.639v-5h7.818z" transform="translate(81.063 25.9924)"/><path d="m0 0h-3.54l-3.512 14.115h-.058l-3.511-14.115h-3.54l-6.491 21.173h4.278l3.953-14.115h.06l3.51 14.115h3.54l3.511-14.115h.059l3.954 14.115h4.276z" transform="translate(188.707 25.9924)"/><path d="m0 0h-.059l-2.361-8.234h4.779zm4.838-16.468-1.416 4.705h-6.903l-1.417-4.705h-4.278l7.08 21.173h4.13l7.082-21.173z" transform="translate(202.8867 42.4602)"/><path d="m0 0v-6.764h-3.983v6.764l-6.638 14.409h4.278l4.366-9.998 4.338 9.998h4.277z" transform="translate(220.5518 32.7561)"/></g><path d="m165.734 25.807h-80.792v21.241h80.792z" fill="#ffed00"/></g></g></svg>